<?xml version="1.0" standalone="no"?>
<!DOCTYPE svg PUBLIC "-//W3C//DTD SVG 20010904//EN"
 "http://www.w3.org/TR/2001/REC-SVG-20010904/DTD/svg10.dtd">
<svg version="1.0" xmlns="http://www.w3.org/2000/svg"
 width="920.000000pt" height="512.000000pt" viewBox="0 0 920.000000 512.000000"
 preserveAspectRatio="xMidYMid meet">
<metadata>
Created by potrace 1.16, written by Peter Selinger 2001-2019
</metadata>
<g transform="translate(0.000000,512.000000) scale(0.100000,-0.100000)"
fill="#000000" stroke="none">
<path d="M3654 3910 c-50 -25 -146 -116 -626 -597 -638 -639 -623 -621 -623
-758 1 -125 -9 -114 624 -748 479 -481 575 -572 625 -597 112 -56 229 -32 314
65 67 76 72 107 72 421 0 234 2 275 16 288 14 14 148 16 1323 16 l1308 0 34
23 c18 12 44 38 56 56 l23 34 0 447 0 447 -23 34 c-12 18 -38 44 -56 56 l-34
23 -1304 0 c-880 0 -1311 3 -1324 10 -18 10 -19 24 -19 289 0 318 -5 350 -70
424 -87 98 -204 123 -316 67z m206 -99 c14 -10 35 -33 48 -51 22 -32 22 -39
22 -316 0 -175 4 -293 11 -311 13 -34 55 -80 91 -99 23 -12 157 -14 819 -14
436 0 790 -2 788 -5 -3 -2 -171 -5 -375 -6 -319 -2 -372 -5 -389 -18 -18 -15
-19 -15 -6 2 15 19 2 24 -17 5 -8 -8 -9 -15 0 -25 9 -11 14 -11 28 2 14 13 17
13 17 0 0 -8 -4 -12 -8 -9 -4 2 -11 -1 -14 -6 -5 -8 -13 -6 -26 6 -13 12 -16
21 -9 29 7 9 2 12 -20 13 -36 1 -50 -30 -26 -57 15 -16 15 -19 1 -31 -8 -7
-15 -17 -15 -23 0 -5 10 -2 23 9 l22 19 -21 -25 c-12 -15 -20 -36 -18 -52 2
-15 -2 -30 -7 -34 -6 -4 -4 -13 5 -23 14 -15 14 -21 -4 -53 -17 -33 -18 -37
-2 -59 20 -28 24 -49 10 -46 -6 1 -13 -4 -16 -12 -2 -8 0 -11 5 -8 6 4 9 -11
7 -41 -1 -26 3 -53 9 -60 15 -18 17 -41 6 -48 -6 -3 -5 -11 2 -20 6 -8 8 -14
4 -14 -5 0 0 -9 10 -20 10 -11 14 -20 10 -20 -5 0 2 -11 15 -25 13 -14 25 -32
26 -41 1 -9 0 -14 -3 -11 -2 3 -4 8 -3 12 1 4 -10 20 -25 35 -15 15 -28 32
-28 37 -1 4 -5 7 -9 6 -4 -2 -5 6 -3 17 2 11 0 22 -6 25 -9 6 -11 -1 -11 -30
0 -31 2 -36 15 -28 6 4 4 -5 -5 -20 -10 -14 -18 -29 -18 -33 0 -3 8 0 18 7 15
12 16 12 5 -1 -8 -10 -9 -21 -3 -30 9 -14 11 -13 14 9 0 5 4 13 8 17 4 4 3 13
-3 21 -18 21 -4 15 17 -8 10 -11 14 -19 9 -17 -6 2 -11 -1 -13 -7 -2 -5 -10
-17 -18 -26 -10 -12 -11 -18 -2 -27 20 -20 17 -39 -8 -63 -23 -21 -35 -67 -15
-54 5 3 13 0 17 -7 4 -7 3 -10 -1 -5 -5 4 -16 0 -26 -9 -16 -14 -17 -13 -12
22 3 25 2 34 -6 30 -6 -4 -9 -11 -6 -16 3 -5 1 -11 -5 -15 -6 -4 -8 -10 -5
-15 3 -5 1 -12 -5 -15 -6 -4 -10 -3 -9 2 4 22 -2 25 -17 7 -15 -19 -15 -19 -6
1 5 11 8 32 7 47 -1 16 2 25 8 21 7 -4 7 1 2 13 -4 10 -8 31 -8 46 0 15 -3 26
-7 23 -12 -7 -19 -44 -9 -50 4 -3 5 -13 2 -21 -3 -9 -6 -30 -7 -48 l-1 -31
-58 0 c-31 0 -57 -3 -57 -7 0 -5 26 -8 58 -9 31 0 80 -2 109 -2 32 -2 49 2 45
8 -3 5 3 3 13 -5 10 -8 16 -10 12 -3 -4 6 -3 15 3 18 8 5 8 11 0 20 -7 9 -6
16 7 26 16 13 17 12 5 -3 -9 -11 -10 -18 -2 -23 8 -5 8 -11 1 -19 -6 -7 -8
-16 -4 -19 3 -4 12 1 19 11 9 13 10 20 1 32 -11 13 -10 13 6 1 12 -10 15 -17
7 -25 -14 -14 -13 -23 5 -23 8 0 12 4 9 8 -2 4 1 11 7 14 7 5 3 15 -11 30 -15
16 -18 25 -10 30 8 5 8 11 -2 23 -13 15 -15 32 -8 47 7 14 5 32 -4 45 -9 13
-9 13 6 2 13 -10 17 -37 8 -49 -8 -10 -4 -31 8 -45 10 -12 10 -18 2 -23 -8 -5
-5 -14 10 -30 14 -15 18 -25 11 -30 -6 -3 -8 -11 -5 -17 4 -6 10 -5 15 3 5 8
9 9 9 3 0 -12 79 -12 99 0 9 6 12 5 8 -2 -5 -7 136 -11 470 -11 262 -1 479 -4
482 -6 2 -3 -424 -5 -948 -5 -800 0 -956 -2 -979 -14 -36 -19 -78 -65 -91 -99
-7 -18 -11 -135 -11 -308 0 -306 -1 -313 -60 -362 -39 -33 -85 -42 -141 -27
-40 10 -100 67 -617 583 -380 380 -579 586 -592 613 -29 58 -26 111 9 165 16
24 280 295 588 602 432 431 568 561 599 573 47 17 109 11 144 -15z"/>
<path d="M4260 2995 c-11 -13 -11 -16 0 -13 7 2 15 -3 18 -11 2 -8 0 -11 -5
-8 -5 3 -9 -3 -10 -13 -1 -11 3 -22 8 -25 5 -4 6 -12 2 -18 -4 -7 -9 -21 -10
-32 -3 -16 -1 -17 7 -5 6 10 10 11 10 3 0 -23 -2 -28 -11 -26 -4 2 -5 -5 -2
-14 4 -10 2 -14 -4 -10 -6 4 -9 -5 -7 -21 1 -15 3 -27 4 -27 1 0 3 -17 5 -37
2 -26 -1 -35 -9 -31 -6 4 -3 -3 7 -14 16 -18 16 -22 2 -33 -8 -7 -15 -18 -15
-24 0 -6 5 -4 10 4 5 8 10 12 11 8 1 -5 2 -11 3 -15 1 -5 4 -13 8 -19 13 -19
-4 -25 -19 -6 -8 9 -12 11 -8 4 3 -7 9 -24 11 -39 4 -23 3 -25 -10 -13 -9 7
-14 16 -11 20 3 5 1 11 -3 14 -13 8 -9 51 6 69 10 11 9 17 -3 27 -8 7 -12 17
-8 24 10 15 12 56 3 61 -4 3 -6 -9 -5 -25 1 -17 -2 -33 -7 -36 -5 -3 -2 -14 7
-24 13 -14 13 -19 2 -29 -15 -12 -17 -48 -4 -68 5 -7 5 -13 1 -13 -4 0 1 -10
12 -22 11 -13 19 -33 18 -45 0 -12 2 -20 7 -17 4 2 5 12 2 22 -5 14 -4 15 8 4
10 -10 11 -17 2 -30 -6 -9 -16 -16 -21 -15 -6 1 -9 -5 -7 -15 1 -9 -4 -24 -12
-34 -10 -11 -11 -18 -3 -23 6 -3 9 -3 8 2 -2 4 2 8 7 8 18 0 5 -57 -19 -84
-12 -13 -14 -21 -6 -26 8 -5 6 -12 -5 -25 -12 -14 -13 -20 -4 -26 7 -4 10 -3
6 3 -4 6 0 16 8 23 11 9 12 16 5 25 -7 8 -4 17 10 30 11 10 20 13 20 7 0 -6
-5 -14 -10 -17 -8 -5 -8 -11 0 -20 7 -9 6 -16 -4 -24 -15 -12 -16 -28 -3 -47
3 -6 -2 -19 -13 -29 -11 -10 -16 -23 -13 -29 4 -6 8 -17 9 -24 2 -8 5 -17 8
-20 8 -8 2 30 -7 44 -3 6 2 19 13 29 12 11 17 23 12 29 -11 15 -9 37 2 34 17
-5 16 -52 -2 -72 -9 -11 -12 -16 -6 -13 8 5 11 -3 10 -23 0 -16 4 -30 9 -30 6
0 10 4 10 9 0 5 3 13 8 17 7 7 11 -11 7 -31 -1 -5 9 -1 21 10 22 20 22 20 15
0 -5 -15 -4 -17 5 -8 9 9 8 16 -4 33 -9 12 -13 28 -11 35 3 7 1 16 -5 20 -7 4
-6 14 4 29 9 13 15 28 14 32 -3 20 2 28 10 16 5 -8 7 14 6 53 -1 36 2 68 7 71
8 5 10 -14 10 -91 0 -59 -2 -66 -12 -60 -6 4 -7 -1 -3 -11 4 -12 3 -15 -5 -10
-8 5 -10 1 -5 -10 5 -12 3 -15 -6 -9 -10 6 -11 3 -2 -12 6 -11 8 -23 5 -26 -3
-3 2 -16 10 -29 9 -14 14 -26 12 -29 -2 -2 27 -4 65 -5 71 0 78 3 57 25 -11
11 -10 12 1 6 8 -5 12 -4 8 1 -3 6 5 10 18 10 13 0 21 -4 18 -10 -3 -5 -2 -6
4 -3 5 3 10 0 10 -7 0 -7 -6 -13 -13 -13 -7 0 -10 5 -7 10 3 6 1 7 -5 3 -20
-12 -13 -23 12 -23 14 0 27 6 30 13 3 8 12 11 21 8 8 -4 15 -1 15 7 0 7 -3 9
-7 6 -3 -4 -14 0 -24 8 -14 13 -16 31 -14 103 2 66 1 76 -5 42 -8 -45 -5 96 4
205 2 31 1 42 -4 30 -5 -14 -8 -6 -7 27 1 27 5 44 11 41 5 -4 6 -1 0 8 -5 8
-10 34 -10 59 -1 26 1 37 5 27 4 -10 7 20 6 66 0 47 -3 80 -7 74 -4 -7 -8 -10
-8 -7 -1 3 -3 25 -5 50 -3 31 -2 36 3 16 7 -28 7 -27 18 17 7 32 7 44 0 40 -6
-4 -3 3 8 15 10 12 23 19 27 16 5 -3 9 -1 9 4 0 10 -130 9 -147 -1 -8 -5 -13
-3 -13 5 0 9 -3 9 -10 -2 -8 -13 -10 -13 -10 -1 0 11 -4 10 -16 -5 -11 -13
-14 -14 -11 -3 3 10 -2 15 -18 15 -13 0 -23 -2 -23 -5 0 -4 0 -12 -1 -20 -1
-16 -16 -5 -16 11 0 21 -31 16 -33 -6 -1 -15 1 -17 7 -7 5 8 11 9 15 3 3 -5
-1 -15 -8 -22 -12 -9 -17 -7 -27 12 -7 13 -11 25 -10 26 2 2 1 6 -2 8 -2 2
-10 -3 -17 -11z m297 -14 c-7 -8 -11 -24 -10 -35 3 -20 2 -20 -6 -1 -7 18 -9
17 -15 -11 -7 -33 -3 -70 11 -101 9 -20 10 -93 1 -108 -3 -6 -4 -57 -2 -115 3
-58 4 -118 3 -135 -2 -47 0 -216 3 -256 2 -20 9 -43 16 -52 10 -12 10 -17 1
-23 -7 -4 -9 -3 -5 4 3 6 1 14 -6 19 -32 19 -88 2 -69 -21 8 -9 -4 -12 -44
-11 -44 0 -58 5 -69 21 -17 23 -15 58 4 94 12 23 15 114 6 183 -2 15 1 30 5
33 5 3 9 -10 10 -28 4 -129 3 -170 -3 -174 -4 -3 -4 -12 -1 -21 4 -11 3 -14
-5 -9 -8 5 -10 1 -5 -10 3 -10 2 -15 -3 -12 -5 4 -9 -4 -9 -17 0 -13 3 -21 8
-18 6 4 11 -10 9 -28 -1 -3 5 -6 13 -6 8 0 14 3 13 6 -2 25 6 32 13 11 9 -25
9 -25 5 3 -2 15 1 30 5 33 8 4 14 -25 10 -48 -2 -13 6 -9 20 9 8 9 9 14 4 11
-6 -4 -15 9 -21 28 -6 19 -8 37 -3 39 4 3 10 -8 14 -25 8 -35 25 -51 19 -18
-4 21 -4 21 4 3 20 -46 21 -2 12 600 0 17 1 60 3 98 3 57 1 70 -16 85 -11 9
-17 12 -14 5 4 -6 3 -14 -3 -18 -10 -6 -15 17 -6 26 3 2 30 4 60 4 46 0 53 -2
43 -14z m-142 -326 c13 -1 7 -34 -11 -62 -9 -14 -10 -24 -4 -28 6 -4 8 -10 6
-14 -3 -4 -1 -13 4 -21 5 -9 5 -19 -1 -27 -6 -7 -7 -22 -3 -35 4 -13 9 -43 10
-68 7 -83 11 -115 18 -137 4 -12 2 -24 -4 -28 -6 -3 -8 -11 -5 -16 4 -5 -3
-21 -14 -34 -19 -25 -20 -25 -26 -6 -3 11 -1 30 5 41 6 11 8 25 5 30 -3 5 -2
11 3 14 9 5 7 179 -3 204 -4 11 -8 12 -20 2 -8 -7 -12 -16 -9 -22 3 -5 0 -16
-8 -25 -7 -9 -13 -37 -13 -62 0 -55 -9 -71 -35 -66 -11 2 -19 1 -19 -3 3 -17
-2 -23 -11 -17 -8 5 -7 11 1 21 6 7 15 11 20 9 4 -3 14 7 22 22 12 24 12 33
-1 63 -19 44 -23 62 -11 54 5 -3 7 -9 4 -14 -3 -5 -1 -11 4 -14 5 -4 8 2 6 11
-3 22 24 55 38 46 6 -3 7 -1 3 6 -5 7 -2 10 6 9 7 -2 12 3 10 10 -1 8 2 11 6
8 9 -6 7 49 -3 64 -3 5 -1 11 4 14 5 3 7 16 4 29 -4 18 -3 19 6 7 13 -18 15
-1 2 19 -7 11 -10 9 -16 -8 -3 -11 -4 -25 0 -30 3 -5 1 -12 -5 -16 -10 -6 -15
9 -10 30 1 6 3 19 5 30 3 27 3 27 18 18 6 -4 17 -8 22 -8z"/>
<path d="M4494 2970 c8 -10 11 -37 9 -80 -2 -36 -3 -83 -2 -105 0 -22 1 -167
2 -322 1 -155 5 -275 9 -265 6 15 7 14 8 -3 1 -17 3 -17 11 5 7 17 7 36 -1 60
-7 22 -9 70 -5 125 3 50 6 97 6 105 -7 146 -8 227 -3 235 10 17 8 89 -4 115
-16 34 -11 106 9 128 15 17 14 18 -18 18 -30 0 -33 -2 -21 -16z"/>
<path d="M4606 2994 c-3 -8 -11 -13 -18 -12 -7 2 -13 -1 -13 -7 -5 -40 -19
-92 -28 -103 -8 -10 -7 -12 3 -10 10 2 13 -17 15 -82 1 -47 -1 -89 -5 -95 -10
-16 -10 -54 0 -60 6 -4 5 -14 -2 -25 -9 -13 -9 -22 -1 -32 6 -7 9 -35 7 -63
-11 -117 -11 -141 -2 -152 5 -6 7 -48 5 -92 -4 -61 -1 -83 9 -92 8 -6 14 -8
14 -3 0 5 6 2 13 -6 7 -9 22 -16 35 -17 23 -2 30 11 10 23 -6 4 -8 3 -4 -4 3
-6 -1 -9 -11 -8 -10 2 -19 13 -21 25 -3 22 -4 22 -18 4 -12 -15 -12 -12 1 18
8 20 11 40 7 43 -3 4 -11 -10 -18 -31 -11 -37 -11 -36 -7 22 2 33 5 76 7 95 4
41 -3 58 -15 39 -6 -10 -9 -10 -9 -2 0 6 5 15 10 18 8 5 8 11 0 20 -8 9 -8 24
-1 47 7 26 9 28 10 10 1 -13 5 -20 11 -17 6 4 4 17 -6 36 -12 24 -13 37 -5 61
6 17 8 34 5 39 -10 17 -13 50 -4 44 6 -3 7 1 3 10 -4 12 -8 13 -13 5 -4 -7 -7
-1 -7 14 0 24 1 25 13 9 13 -16 14 -15 8 12 -11 57 -12 160 -2 179 6 11 6 16
0 12 -5 -3 -8 13 -6 42 6 73 6 73 19 62 9 -8 14 -5 18 9 3 14 11 19 26 16 12
-2 21 0 21 4 0 14 -49 9 -54 -5z"/>
<path d="M4666 2994 c-3 -7 -14 -11 -25 -9 -13 2 -21 -3 -24 -17 -3 -11 -10
-17 -16 -14 -14 9 -24 -49 -13 -71 6 -10 7 -25 2 -33 -7 -14 -7 -62 3 -188 2
-24 0 -45 -5 -48 -4 -3 -4 -13 2 -24 6 -12 6 -28 -1 -48 -8 -24 -7 -37 5 -60
13 -25 13 -32 2 -41 -7 -6 -16 -8 -19 -4 -4 3 -7 -1 -7 -10 0 -9 5 -19 10 -22
6 -4 8 -10 5 -15 -3 -5 -1 -11 4 -14 9 -6 6 -74 -5 -109 -4 -12 -2 -17 4 -13
12 7 26 -10 27 -34 1 -8 2 -25 3 -38 1 -13 6 -21 12 -17 6 3 6 15 0 29 -5 13
-6 34 -3 45 4 15 1 21 -8 19 -10 -2 -14 10 -15 45 0 27 3 42 8 35 6 -10 8 -8
8 4 0 9 -4 19 -9 22 -5 3 -7 15 -4 26 3 12 1 20 -5 18 -9 -3 -12 1 -12 18 0 4
8 0 17 -7 15 -13 16 -12 11 9 -4 12 -3 20 2 17 4 -3 10 4 13 15 3 11 1 23 -4
26 -5 3 -9 -3 -10 -13 0 -14 -3 -12 -11 7 -15 34 -16 43 -5 58 5 6 6 12 3 12
-4 0 0 10 8 21 8 12 12 29 8 38 -5 13 -8 11 -13 -9 -6 -20 -7 -17 -5 12 1 21
6 41 9 45 10 9 9 25 -1 19 -8 -5 -8 -4 -15 90 -4 69 5 115 16 74 8 -32 17 -22
10 12 -3 15 -9 26 -13 23 -5 -3 -6 5 -3 17 4 19 3 20 -6 8 -9 -13 -11 -12 -8
5 5 36 17 48 35 33 13 -11 15 -10 10 9 -7 25 6 40 18 21 5 -7 10 -4 16 11 6
18 11 21 21 12 10 -7 17 -7 24 0 16 16 10 -36 -6 -55 -7 -8 -8 -17 -3 -20 11
-6 36 42 35 67 0 10 2 15 6 12 3 -4 6 -16 6 -28 1 -12 6 -21 11 -20 6 1 11 -4
11 -12 0 -8 -5 -13 -11 -12 -13 2 -15 -22 -4 -45 5 -10 4 -19 -3 -24 -6 -3 -9
-14 -6 -24 2 -10 1 -24 -4 -31 -4 -7 -5 -17 -2 -22 3 -5 9 -3 14 4 6 10 8 7 6
-8 -1 -21 -2 -21 -19 -6 -23 21 -23 6 0 -20 10 -13 11 -17 3 -12 -11 6 -13 4
-8 -9 4 -11 3 -15 -4 -11 -6 4 -8 13 -5 20 2 7 0 17 -6 23 -7 7 -5 17 5 33 10
17 12 31 6 47 -12 30 -20 28 -15 -4 3 -15 -1 -36 -9 -47 -10 -14 -11 -24 -4
-33 5 -6 9 -16 8 -20 -3 -14 12 -44 20 -40 4 3 7 -5 8 -17 0 -12 -1 -16 -4 -9
-3 6 -9 10 -14 6 -5 -3 -6 -11 -2 -17 4 -7 8 -15 9 -19 1 -5 2 -9 4 -10 8 -12
6 -45 -6 -73 -18 -43 -18 -51 1 -35 8 7 13 16 10 20 -2 4 2 16 11 26 15 18 15
18 6 -1 -5 -11 -8 -30 -6 -42 2 -12 -1 -25 -6 -28 -6 -4 -7 1 -3 11 4 11 3 15
-4 11 -14 -9 -10 -101 4 -119 6 -7 7 -22 3 -33 -4 -11 -3 -29 3 -40 6 -11 11
-23 12 -27 0 -5 3 -8 8 -8 4 0 10 0 13 0 4 0 -1 12 -11 26 -12 19 -14 29 -5
39 8 9 8 20 2 32 -12 23 -8 50 12 71 22 25 22 28 4 49 -11 11 -16 31 -14 53 2
19 -1 41 -7 48 -7 8 -5 18 6 30 14 15 14 19 -3 40 -19 23 -19 24 0 60 18 32
18 38 4 53 -10 11 -12 19 -5 24 6 3 11 11 11 16 0 6 -6 7 -12 3 -10 -6 -10 -5
-1 7 7 8 10 27 8 41 -3 16 1 31 10 38 14 12 14 15 -1 31 -9 10 -13 26 -10 36
5 17 0 19 -49 19 -35 0 -56 -4 -59 -12z"/>
<path d="M4650 2879 c0 -8 5 -20 12 -27 8 -8 8 -15 -2 -27 -7 -8 -10 -15 -6
-15 4 0 -1 -11 -9 -24 -11 -16 -13 -26 -6 -31 7 -3 11 2 11 14 0 11 4 22 9 26
6 3 6 -7 0 -27 -11 -41 -11 -41 3 -32 7 4 8 3 4 -4 -4 -6 0 -23 9 -36 9 -14
18 -31 19 -38 6 -30 19 -47 29 -41 6 4 1 -7 -11 -24 -17 -23 -19 -33 -9 -43 9
-10 9 -11 -2 -5 -10 6 -12 2 -6 -16 5 -19 4 -21 -5 -9 -9 13 -10 12 -7 -5 2
-11 9 -19 16 -17 7 1 10 -2 7 -7 -4 -5 -2 -12 4 -16 6 -4 8 -11 4 -16 -3 -5
-10 -7 -15 -4 -5 4 -9 -1 -9 -10 0 -10 5 -13 12 -9 6 4 8 3 4 -4 -3 -6 -1 -14
5 -17 5 -4 8 -13 5 -21 -3 -7 -1 -16 5 -20 7 -4 6 -10 -1 -19 -8 -9 -8 -15 0
-20 5 -3 8 -18 5 -33 -4 -15 -7 -34 -9 -42 -2 -8 1 -23 6 -33 5 -11 6 -23 1
-30 -11 -14 -11 -37 0 -37 4 0 10 0 13 0 4 0 1 7 -6 16 -11 12 -11 15 -1 12 7
-2 15 7 17 20 3 16 0 21 -8 16 -7 -5 -3 5 10 20 21 27 22 53 1 40 -5 -3 -7 -9
-4 -14 3 -4 -3 -14 -13 -21 -15 -13 -16 -12 -3 4 7 9 10 17 6 17 -5 0 -1 8 8
18 13 14 13 20 2 36 -9 12 -11 26 -5 40 5 14 3 28 -7 41 -7 11 -11 30 -8 42 3
12 1 33 -5 48 -7 19 -6 35 4 60 12 28 14 61 6 73 -2 1 -3 5 -4 10 0 4 -12 22
-26 41 -25 37 -33 90 -18 130 6 17 4 28 -6 40 -8 9 -15 20 -14 24 0 5 -3 11
-6 15 -3 3 -6 -1 -6 -9z"/>
<path d="M4606 2771 c1 -32 7 -69 14 -81 7 -14 8 -25 2 -33 -7 -8 -6 -20 3
-37 10 -19 11 -30 2 -45 -6 -11 -12 -23 -13 -27 -1 -5 -2 -9 -4 -10 -8 -10 -6
-39 2 -45 7 -4 9 2 6 15 -4 14 -2 20 5 15 6 -4 8 2 5 15 -4 12 -3 20 2 17 10
-6 20 46 12 60 -9 15 -10 45 0 39 4 -3 8 -1 8 5 0 5 -4 12 -10 16 -5 3 -6 13
-3 22 4 9 2 14 -3 10 -5 -3 -10 6 -11 21 -1 15 1 20 4 12 3 -8 14 -26 23 -40
9 -14 15 -31 12 -39 -2 -8 0 -11 5 -8 5 3 10 1 11 -6 1 -7 3 -24 6 -40 3 -19
1 -25 -7 -20 -7 3 -9 3 -5 -2 4 -4 1 -23 -7 -41 -8 -20 -10 -36 -4 -39 5 -4 7
-10 4 -15 -3 -5 -1 -12 5 -15 7 -4 7 -11 2 -18 -11 -14 11 -60 23 -49 5 4 5 2
1 -5 -3 -6 -8 -30 -10 -53 -4 -37 -2 -40 12 -28 11 9 10 5 -3 -13 -12 -17 -23
-23 -27 -16 -3 6 -5 -19 -4 -56 1 -36 -1 -64 -6 -61 -5 3 -6 9 -3 14 3 5 1 11
-4 15 -7 4 -7 15 -1 31 12 31 12 37 1 30 -5 -4 -7 4 -3 16 3 12 1 19 -5 15
-17 -11 -7 -104 16 -132 l20 -27 -1 36 c-1 20 2 39 5 43 4 3 3 11 -3 17 -10
14 11 62 26 59 13 -2 15 35 3 43 -6 4 -6 11 1 19 8 9 8 15 0 20 -6 3 -8 11 -4
16 3 6 -2 19 -11 29 -19 21 -13 56 7 44 7 -4 2 3 -10 16 -17 16 -22 29 -17 44
3 11 7 26 8 31 2 6 8 19 14 30 8 15 8 26 0 40 -6 11 -12 25 -13 31 -1 7 -14
33 -30 59 -15 27 -29 59 -30 73 -6 54 -21 41 -18 -17z"/>
</g>
</svg>
