<?xml version="1.0" standalone="no"?>
<!DOCTYPE svg PUBLIC "-//W3C//DTD SVG 20010904//EN"
 "http://www.w3.org/TR/2001/REC-SVG-20010904/DTD/svg10.dtd">
<svg version="1.0" xmlns="http://www.w3.org/2000/svg"
 width="920.000000pt" height="512.000000pt" viewBox="0 0 920.000000 512.000000"
 preserveAspectRatio="xMidYMid meet">
<metadata>
Created by potrace 1.16, written by Peter Selinger 2001-2019
</metadata>
<g transform="translate(0.000000,512.000000) scale(0.100000,-0.100000)"
fill="#000000" stroke="none">
<path d="M5325 3916 c-65 -30 -131 -104 -150 -169 -12 -40 -15 -110 -15 -323
0 -234 -2 -275 -16 -288 -14 -14 -148 -16 -1323 -16 l-1308 0 -34 -23 c-18
-12 -44 -38 -56 -56 l-23 -34 0 -447 0 -447 23 -34 c12 -18 38 -44 56 -56 l34
-23 1304 0 c880 0 1311 -3 1324 -10 18 -10 19 -24 19 -289 0 -318 5 -350 70
-424 54 -61 128 -97 200 -97 116 0 116 1 742 627 638 639 623 621 623 758 -1
125 9 114 -624 748 -479 481 -575 572 -625 597 -76 38 -148 40 -221 6z m150
-87 c34 -9 122 -93 613 -582 380 -380 579 -586 592 -613 29 -58 26 -111 -9
-165 -16 -24 -282 -297 -592 -606 -501 -499 -569 -563 -607 -573 -54 -14 -105
-4 -143 27 -58 49 -59 56 -59 362 0 173 -4 290 -11 308 -13 34 -55 80 -91 99
-23 12 -157 14 -819 14 -436 0 -790 2 -788 5 3 2 171 5 375 6 319 2 372 5 389
18 18 15 19 15 6 -1 -15 -20 -2 -25 17 -6 8 8 9 15 0 25 -9 11 -14 11 -28 -2
-14 -13 -17 -13 -17 0 0 8 4 12 8 9 4 -2 11 1 14 6 5 8 13 6 26 -6 13 -12 16
-21 9 -29 -7 -9 -2 -12 20 -13 36 -1 50 30 26 57 -15 16 -15 19 -1 31 8 7 15
17 15 23 0 5 -10 2 -22 -9 l-23 -19 21 25 c12 15 20 36 18 52 -2 15 2 30 7 34
6 4 4 13 -5 23 -14 15 -14 21 4 53 17 33 18 37 2 59 -20 28 -24 49 -10 46 6
-1 13 4 16 12 2 8 0 11 -5 8 -6 -4 -9 11 -7 41 1 26 -3 53 -9 60 -15 18 -17
41 -6 48 6 3 5 11 -2 20 -6 8 -8 14 -4 14 5 0 0 9 -10 20 -10 11 -14 20 -10
20 5 0 -2 11 -15 25 -13 14 -25 32 -26 41 -1 9 0 14 3 11 2 -3 4 -8 3 -12 -1
-4 10 -20 25 -35 15 -15 28 -32 28 -37 1 -4 5 -7 9 -6 4 2 5 -6 3 -17 -2 -11
0 -22 6 -25 9 -6 12 1 12 30 0 31 -3 36 -15 28 -7 -4 -5 5 5 20 9 14 17 29 17
33 0 3 -8 0 -17 -7 -16 -12 -17 -12 -6 1 8 10 9 21 3 30 -9 14 -11 13 -14 -9
0 -5 -4 -13 -8 -17 -4 -4 -3 -13 3 -21 18 -21 4 -15 -17 8 -10 11 -14 19 -9
17 6 -2 11 2 13 7 2 6 10 17 18 26 10 12 11 18 2 27 -20 20 -17 39 8 63 23 21
35 67 15 54 -5 -3 -13 0 -17 7 -4 7 -3 10 1 5 5 -4 16 0 26 9 16 14 17 13 12
-22 -3 -25 -2 -34 6 -30 6 4 9 11 6 16 -3 5 -1 11 5 15 6 4 8 10 5 15 -3 5 -1
12 5 15 6 4 10 3 9 -2 -4 -22 2 -25 17 -7 15 19 15 19 6 -1 -5 -11 -8 -32 -7
-47 1 -16 -2 -25 -8 -21 -7 4 -7 -1 -2 -13 4 -10 8 -31 8 -46 0 -15 3 -26 7
-23 12 7 19 44 9 50 -4 3 -5 13 -2 21 3 9 6 30 7 48 l1 31 58 0 c31 0 57 3 57
8 0 4 -26 7 -57 8 -32 0 -81 2 -110 2 -32 2 -49 -2 -45 -8 3 -5 -3 -3 -13 5
-10 8 -16 10 -12 3 4 -6 3 -15 -3 -18 -8 -5 -8 -11 0 -20 7 -9 6 -16 -7 -26
-16 -13 -17 -12 -5 3 9 11 10 18 2 23 -8 5 -8 11 -1 19 6 7 8 16 4 19 -3 4
-12 -1 -19 -11 -9 -13 -10 -20 -1 -32 11 -13 10 -13 -6 -1 -12 10 -15 17 -7
25 14 14 13 23 -5 23 -8 0 -12 -4 -9 -8 2 -4 -1 -11 -7 -14 -7 -5 -3 -15 11
-30 15 -16 18 -25 10 -30 -8 -5 -8 -11 2 -23 13 -15 15 -32 8 -47 -7 -14 -5
-32 4 -45 9 -13 9 -13 -6 -2 -13 10 -17 37 -8 50 8 9 4 30 -8 44 -10 12 -10
18 -2 23 8 5 5 14 -10 30 -14 15 -18 25 -11 30 6 3 8 11 5 17 -4 6 -10 5 -15
-3 -5 -8 -9 -9 -9 -3 0 12 -79 12 -99 0 -9 -6 -12 -5 -8 2 5 7 -136 11 -470
11 -262 1 -479 4 -482 6 -2 3 424 5 948 5 800 0 956 2 979 14 36 19 78 65 91
99 7 18 11 135 11 308 0 299 1 309 52 356 44 41 86 50 153 32z"/>
<path d="M4636 2984 c-3 -8 -12 -11 -21 -8 -8 4 -15 1 -15 -7 0 -7 3 -9 7 -6
3 4 14 0 24 -8 14 -13 16 -31 14 -103 -2 -66 -1 -76 5 -42 8 45 5 -96 -4 -205
-2 -31 -1 -42 4 -30 5 14 8 6 7 -27 -1 -27 -5 -44 -11 -41 -5 4 -6 1 0 -8 5
-8 10 -34 10 -59 1 -26 -1 -37 -5 -27 -4 10 -7 -20 -6 -66 0 -47 3 -80 7 -74
4 7 8 10 8 7 1 -3 3 -25 5 -50 3 -31 2 -36 -3 -16 -7 28 -7 27 -18 -17 -7 -32
-7 -44 0 -40 6 4 3 -3 -8 -15 -10 -12 -23 -19 -27 -16 -5 3 -9 1 -9 -4 0 -10
130 -9 148 1 7 5 12 3 12 -5 0 -9 3 -9 10 2 8 13 10 13 10 1 0 -11 4 -10 16 5
11 13 14 14 11 4 -3 -11 2 -16 18 -16 13 0 23 2 23 6 0 3 0 11 1 19 1 16 16 5
16 -11 0 -21 31 -16 33 6 1 15 -1 17 -7 7 -5 -8 -11 -9 -15 -3 -3 5 1 15 8 22
12 9 17 7 24 -7 6 -10 9 -21 9 -25 -4 -15 11 -17 23 -3 11 13 11 16 0 13 -7
-2 -15 3 -18 11 -2 8 0 11 5 8 5 -3 9 3 10 13 1 11 -3 22 -8 25 -5 4 -6 12 -2
18 4 7 9 21 10 32 3 16 1 17 -7 5 -6 -10 -10 -11 -10 -2 0 22 2 27 11 25 4 -2
5 5 2 14 -4 10 -2 14 4 10 6 -4 9 5 7 21 -1 15 -3 27 -4 27 -1 0 -3 17 -5 37
-2 26 1 35 9 31 6 -4 3 3 -7 14 -16 18 -16 22 -2 33 8 7 15 18 15 24 0 6 -4 5
-9 -3 -6 -9 -11 -10 -15 -2 -4 6 -4 11 0 11 3 0 1 6 -5 13 -6 8 -8 17 -4 20 3
4 12 -1 20 -11 8 -9 12 -11 8 -4 -3 7 -9 24 -11 39 -4 23 -3 25 10 13 9 -7 14
-16 11 -20 -3 -5 -1 -11 3 -14 13 -8 9 -51 -6 -69 -10 -11 -9 -17 3 -27 8 -7
12 -17 8 -24 -10 -15 -12 -56 -3 -61 4 -3 6 9 5 25 -1 17 2 33 7 36 5 3 2 14
-7 24 -13 14 -13 19 -2 29 15 12 17 48 4 69 -5 6 -5 12 -1 12 4 0 -1 10 -12
23 -11 12 -19 32 -18 44 0 12 -2 20 -7 17 -4 -2 -5 -12 -2 -22 5 -14 4 -15 -8
-4 -10 10 -11 17 -2 30 6 9 16 16 21 15 6 -1 9 5 7 15 -1 9 4 24 12 34 10 11
11 18 3 23 -6 3 -9 3 -8 -2 2 -4 -1 -8 -7 -8 -18 0 -5 57 19 84 12 13 14 21 6
26 -8 5 -6 12 5 25 12 14 13 20 4 26 -7 4 -10 3 -6 -3 4 -6 0 -16 -8 -23 -11
-9 -12 -16 -5 -25 7 -8 4 -17 -10 -30 -11 -10 -20 -13 -20 -7 0 6 5 14 10 17
8 5 8 11 0 20 -7 9 -6 16 4 24 15 12 16 28 3 47 -3 6 2 19 13 29 11 10 16 23
13 29 -4 6 -8 17 -9 24 -2 8 -5 17 -8 20 -8 8 -2 -30 7 -44 3 -6 -2 -19 -13
-29 -12 -11 -17 -23 -12 -29 11 -14 9 -36 -2 -36 -17 0 -15 54 2 74 9 11 12
16 6 13 -8 -5 -11 2 -10 21 0 15 -3 28 -9 30 -5 1 -10 -2 -10 -7 0 -5 -3 -13
-7 -17 -8 -7 -12 11 -8 31 1 5 -9 1 -21 -10 -22 -20 -22 -20 -15 0 5 15 4 17
-5 8 -9 -9 -8 -16 4 -33 9 -12 13 -28 11 -35 -3 -7 -1 -16 5 -20 7 -4 6 -14
-4 -29 -9 -13 -15 -28 -14 -32 3 -20 -2 -28 -10 -16 -5 8 -7 -14 -6 -53 1 -36
-2 -68 -7 -71 -8 -5 -10 14 -10 91 0 59 2 66 12 60 6 -4 7 1 3 11 -4 12 -3 15
5 10 8 -5 10 -1 5 10 -5 12 -3 15 6 9 10 -6 11 -3 2 12 -6 11 -8 23 -5 26 3 3
-2 16 -10 29 -9 14 -14 26 -12 29 2 2 -27 4 -65 5 -71 0 -78 -3 -56 -25 10
-11 9 -12 -2 -6 -8 5 -12 4 -8 -1 3 -6 -5 -10 -18 -10 -13 0 -21 4 -18 10 3 5
2 6 -4 3 -5 -3 -10 0 -10 7 0 7 6 13 13 13 7 0 10 -5 7 -10 -3 -6 -1 -7 5 -3
20 12 13 24 -12 24 -14 0 -27 -7 -30 -14z m198 -20 c17 -23 15 -58 -4 -94 -12
-23 -15 -114 -6 -183 2 -15 -1 -30 -5 -33 -5 -3 -9 10 -10 28 -4 129 -3 170 3
174 4 3 4 12 1 21 -4 11 -3 14 5 9 8 -5 10 -1 5 10 -3 10 -2 15 3 12 5 -4 9 4
9 17 0 13 -3 21 -7 18 -7 -4 -12 10 -10 28 1 3 -5 6 -13 6 -8 0 -14 -3 -13 -6
2 -25 -6 -32 -13 -11 -9 25 -9 25 -5 -3 2 -15 -1 -30 -5 -33 -8 -4 -14 25 -10
49 2 12 -6 8 -20 -10 -8 -9 -9 -14 -4 -11 6 4 15 -9 21 -28 6 -19 8 -37 3 -39
-4 -3 -10 8 -14 25 -8 35 -25 51 -19 18 4 -21 4 -21 -4 -3 -20 46 -21 2 -12
-600 0 -16 -1 -60 -3 -98 -3 -57 -1 -70 16 -85 11 -9 17 -12 14 -5 -4 6 -2 15
4 18 7 5 10 0 7 -11 -3 -15 -13 -19 -60 -19 -49 -1 -55 1 -45 14 7 8 11 24 10
35 -3 20 -2 20 6 1 7 -18 9 -17 15 11 7 33 3 70 -11 101 -9 20 -10 93 -1 108
3 6 4 57 2 115 -3 58 -4 119 -3 135 2 47 0 216 -3 256 -2 20 -9 43 -16 52 -10
12 -10 17 -1 23 7 4 9 3 6 -3 -15 -23 41 -38 71 -19 9 5 10 12 3 20 -8 9 3 12
44 11 44 0 58 -5 69 -21z m-59 -224 c1 -41 8 -88 14 -104 11 -27 13 -28 30
-12 9 9 20 14 23 11 3 -3 13 4 23 15 21 23 29 75 15 99 -5 10 -3 26 6 42 12
24 19 27 53 20 2 -1 -2 -8 -9 -16 -10 -12 -10 -19 -2 -27 6 -6 8 -18 3 -27 -6
-14 -7 -36 -1 -43 10 -13 4 -40 -11 -54 -22 -20 -24 -37 -6 -53 15 -12 16 -38
3 -60 -7 -11 -10 -11 -17 0 -4 7 -5 18 -1 24 10 16 11 36 1 29 -10 -5 -12 5
-11 46 0 14 -2 19 -5 12 -2 -6 -8 -10 -13 -7 -10 6 -8 -15 3 -32 15 -24 16
-52 2 -63 -12 -10 -14 -7 -11 17 3 18 -3 38 -15 54 -11 13 -17 17 -13 8 3 -10
1 -20 -5 -24 -6 -3 -11 -1 -11 6 0 7 -7 4 -16 -7 -14 -17 -15 -17 -10 -1 4 12
2 16 -6 11 -6 -4 -8 -3 -4 4 3 6 2 13 -4 17 -6 4 -8 10 -5 15 3 5 1 11 -4 14
-5 3 -8 26 -7 50 1 25 -1 43 -5 41 -3 -3 -5 12 -4 33 0 20 -5 52 -12 71 -21
55 -14 70 9 16 13 -32 21 -77 23 -125z"/>
<path d="M4666 2913 c-4 -19 -3 -40 4 -52 7 -14 9 -56 5 -118 -3 -54 -6 -105
-6 -113 7 -156 8 -227 3 -235 -10 -17 -8 -89 4 -115 16 -34 11 -106 -9 -128
-15 -17 -14 -18 18 -18 30 0 33 2 21 16 -8 10 -11 37 -9 80 2 36 3 83 2 105 0
22 -1 167 -2 322 -1 155 -5 275 -8 265 -6 -15 -7 -15 -11 3 -3 16 -6 13 -12
-12z"/>
<path d="M4544 2897 c1 -58 -3 -82 -11 -82 -22 0 -37 -25 -39 -66 -2 -49 16
-38 20 12 5 52 6 55 15 41 6 -10 12 -7 24 12 10 14 13 27 7 31 -6 4 -6 15 0
31 12 30 12 37 3 31 -5 -3 -8 10 -8 28 0 24 4 32 15 30 8 -1 16 -12 18 -24 3
-22 4 -22 18 -4 12 15 12 12 -1 -18 -8 -20 -11 -40 -7 -43 3 -4 11 10 18 31
11 37 11 36 7 -22 -2 -33 -5 -76 -7 -95 -4 -41 3 -58 15 -39 6 10 9 10 9 2 0
-6 -5 -15 -10 -18 -8 -5 -8 -11 0 -20 8 -9 8 -24 1 -47 -7 -26 -9 -28 -10 -10
-1 13 -5 20 -11 17 -6 -4 -4 -17 6 -36 12 -24 13 -37 5 -61 -6 -17 -8 -34 -5
-39 10 -17 13 -50 4 -44 -6 3 -7 -1 -3 -10 4 -12 8 -13 13 -5 4 7 8 1 8 -14 0
-24 -2 -25 -14 -9 -13 16 -14 15 -8 -12 11 -57 12 -160 2 -179 -6 -11 -6 -16
0 -12 5 3 8 -13 6 -42 -6 -73 -6 -73 -19 -62 -9 8 -14 5 -18 -9 -3 -14 -11
-19 -26 -16 -12 2 -21 0 -21 -5 0 -12 43 -8 52 5 4 5 13 10 20 10 7 0 13 5 14
10 2 32 18 92 27 103 8 10 7 12 -3 10 -10 -2 -13 17 -15 82 -1 47 1 90 5 95
10 16 10 54 -1 61 -6 4 -5 11 2 21 10 11 10 19 2 32 -6 10 -9 40 -6 67 10 116
10 140 1 151 -5 6 -7 48 -5 92 4 61 1 83 -9 92 -8 6 -14 8 -14 3 0 -5 -6 -2
-13 6 -7 9 -21 16 -33 17 -19 1 -21 -3 -20 -80z"/>
<path d="M4567 2954 c-3 -3 -2 -17 3 -30 6 -15 6 -34 0 -49 -6 -15 -6 -26 1
-30 5 -4 1 -19 -12 -36 -11 -16 -24 -27 -29 -24 -5 3 -8 -8 -8 -24 1 -17 -4
-36 -10 -44 -9 -10 -9 -16 0 -25 14 -14 2 -46 -14 -36 -7 4 -2 -3 10 -16 13
-12 22 -30 19 -39 -2 -9 -6 -23 -8 -31 -2 -8 -14 -29 -27 -47 -13 -19 -18 -34
-12 -38 6 -4 8 -10 6 -13 -2 -4 5 -19 16 -32 16 -20 19 -21 13 -5 -4 11 -8 25
-9 32 -1 7 -5 16 -9 19 -4 4 -7 12 -7 18 0 5 7 1 15 -10 13 -18 14 -17 10 14
-2 23 0 30 8 26 7 -4 9 -4 5 1 -4 4 -1 22 6 40 10 24 11 36 3 44 -6 6 -7 11
-3 11 5 0 3 6 -3 14 -9 10 -9 16 -1 21 8 5 8 11 -1 21 -6 8 -8 21 -3 31 4 10
8 26 9 36 2 9 3 20 4 23 0 4 9 0 18 -7 15 -13 16 -12 11 9 -4 14 -2 20 5 15 7
-4 8 0 4 11 -4 9 -3 15 2 12 5 -3 8 7 7 24 -1 16 0 27 3 24 4 -3 6 -26 7 -50
0 -26 -3 -39 -8 -32 -6 10 -8 8 -8 -4 0 -9 4 -19 9 -22 5 -3 7 -15 4 -26 -3
-12 -2 -20 3 -18 5 2 10 0 12 -4 5 -18 1 -20 -15 -7 -15 13 -16 12 -11 -9 4
-12 3 -20 -2 -17 -4 3 -10 -4 -13 -15 -3 -11 -1 -23 4 -26 5 -3 9 3 10 13 0
14 3 12 11 -7 15 -34 16 -43 5 -57 -5 -7 -6 -13 -3 -13 4 0 0 -10 -8 -21 -8
-12 -12 -29 -8 -38 5 -13 8 -11 13 9 6 20 7 17 5 -12 -1 -21 -6 -41 -9 -45
-10 -9 -9 -25 1 -19 8 5 8 4 15 -90 4 -69 -5 -115 -16 -74 -8 32 -17 22 -10
-12 3 -15 9 -26 13 -23 5 3 6 -5 3 -17 -4 -19 -3 -20 6 -8 9 13 11 12 8 -5 -5
-36 -17 -48 -35 -33 -13 11 -15 10 -10 -9 7 -25 -6 -40 -18 -21 -5 7 -10 4
-16 -11 -6 -18 -11 -21 -21 -12 -10 7 -17 7 -24 0 -16 -16 -10 36 6 55 7 8 8
17 3 20 -11 6 -36 -42 -35 -67 0 -10 -2 -15 -6 -12 -3 4 -6 16 -6 28 -1 12 -6
21 -11 20 -6 -1 -11 4 -11 12 0 8 5 13 11 12 13 -2 15 22 4 45 -5 10 -4 19 3
24 6 3 9 14 6 24 -2 10 -1 24 4 31 4 7 5 17 2 22 -3 5 -9 3 -14 -4 -6 -10 -8
-7 -6 8 1 21 2 21 19 6 23 -21 23 -6 1 20 -11 13 -12 17 -4 12 11 -6 13 -4 8
9 -4 11 -3 15 4 11 6 -4 8 -13 5 -20 -2 -7 0 -17 6 -23 7 -7 5 -17 -5 -33 -10
-17 -12 -31 -6 -46 12 -31 20 -29 15 3 -3 15 1 36 9 47 10 14 11 24 4 33 -5 6
-9 16 -8 20 3 14 -12 44 -20 40 -4 -3 -7 5 -8 17 0 12 1 16 4 9 3 -6 9 -9 14
-6 6 3 5 11 -2 20 -6 8 -8 14 -4 14 4 0 1 8 -6 17 -12 15 -12 16 1 8 13 -7 13
-6 2 7 -10 12 -9 22 3 52 9 20 13 42 9 48 -4 6 -9 30 -10 52 -9 110 -16 150
-32 168 -9 11 -9 19 1 34 11 17 12 26 8 58 0 5 -12 -1 -25 -13 -26 -24 -28
-40 -7 -65 7 -9 10 -16 6 -16 -4 0 0 -12 10 -26 12 -19 14 -29 5 -39 -8 -9 -8
-20 -2 -32 13 -24 7 -50 -15 -75 -19 -21 -19 -25 2 -48 8 -9 12 -31 11 -50 -2
-19 1 -41 7 -48 7 -8 5 -18 -6 -30 -14 -15 -14 -19 3 -40 19 -23 19 -24 0 -60
-18 -32 -18 -38 -4 -53 10 -11 12 -19 5 -24 -6 -3 -11 -11 -11 -16 0 -6 6 -7
13 -3 9 6 9 5 0 -7 -7 -8 -10 -27 -8 -41 3 -16 -1 -31 -10 -38 -14 -12 -14
-15 1 -31 9 -10 13 -26 10 -36 -5 -17 0 -19 49 -19 35 0 56 4 59 12 3 7 14 11
25 9 13 -2 21 3 24 17 3 11 10 17 16 14 14 -9 24 49 13 71 -6 10 -7 25 -2 33
7 14 7 62 -3 188 -2 24 0 45 5 48 4 3 4 13 -2 24 -6 12 -6 28 1 48 8 24 7 37
-5 60 -13 25 -13 32 -2 41 7 6 16 8 19 4 4 -3 7 1 7 10 0 9 -5 19 -10 22 -6 4
-8 10 -5 15 3 5 1 11 -4 14 -9 6 -6 74 5 109 4 12 2 17 -4 13 -14 -9 -24 10
-28 52 -4 37 -7 45 -17 36z"/>
</g>
</svg>
